<svg width="20" height="20" viewBox="0 0 20 20" fill="none" xmlns="http://www.w3.org/2000/svg">
<path fill-rule="evenodd" clip-rule="evenodd" d="M10 18C14.4183 18 18 14.4183 18 10C18 5.58172 14.4183 2 10 2C5.58172 2 2 5.58172 2 10C2 14.4183 5.58172 18 10 18ZM10 20C15.5228 20 20 15.5228 20 10C20 4.47715 15.5228 0 10 0C4.47715 0 0 4.47715 0 10C0 15.5228 4.47715 20 10 20Z" fill="white" fill-opacity="0.64"/>
<path fill-rule="evenodd" clip-rule="evenodd" d="M10 5C9.44772 5 9 5.44772 9 6V9L6 9C5.44772 9 5 9.44771 5 10C5 10.5523 5.44772 11 6 11H9V14C9 14.5523 9.44772 15 10 15C10.5523 15 11 14.5523 11 14V11H14C14.5523 11 15 10.5523 15 10C15 9.44772 14.5523 9 14 9L11 9V6C11 5.44772 10.5523 5 10 5Z" fill="white"/>
</svg>
