<svg width="20" height="20" viewBox="0 0 20 20" fill="none" xmlns="http://www.w3.org/2000/svg">
<path fill-rule="evenodd" clip-rule="evenodd" d="M17 2H3C2.44771 2 2 2.44772 2 3V17C2 17.5523 2.44772 18 3 18H17C17.5523 18 18 17.5523 18 17V3C18 2.44771 17.5523 2 17 2ZM3 0C1.34315 0 0 1.34315 0 3V17C0 18.6569 1.34315 20 3 20H17C18.6569 20 20 18.6569 20 17V3C20 1.34315 18.6569 0 17 0H3Z" fill="white" fill-opacity="0.64"/>
<path d="M3.31747 9.22048C2.89418 9.651 2.89418 10.349 3.31747 10.7795L7.14966 14.6771C7.57295 15.1076 8.25924 15.1076 8.68253 14.6771C9.10582 14.2466 9.10582 13.5486 8.68253 13.1181L5.61678 10L8.68253 6.88193C9.10582 6.45141 9.10582 5.7534 8.68253 5.32289C8.25924 4.89237 7.57295 4.89237 7.14966 5.32289L3.31747 9.22048Z" fill="white"/>
<path d="M16.6825 9.22048C17.1058 9.651 17.1058 10.349 16.6825 10.7795L12.8503 14.6771C12.4271 15.1076 11.7408 15.1076 11.3175 14.6771C10.8942 14.2466 10.8942 13.5486 11.3175 13.1181L14.3832 10L11.3175 6.88193C10.8942 6.45141 10.8942 5.7534 11.3175 5.32289C11.7408 4.89237 12.4271 4.89237 12.8503 5.32289L16.6825 9.22048Z" fill="white"/>
</svg>
