<svg width="20" height="20" viewBox="0 0 20 20" fill="none" xmlns="http://www.w3.org/2000/svg">
<path fill-rule="evenodd" clip-rule="evenodd" d="M5.375 0.999953C5.76552 0.609429 6.39869 0.609428 6.78921 0.999953L15.7111 9.92186L10.4432 15.1897C8.07563 17.5573 4.23699 17.5573 1.86939 15.1897C-0.498217 12.8221 -0.49822 8.9835 1.86938 6.61589L5.72305 2.76222L5.375 2.41417C4.98448 2.02364 4.98448 1.39048 5.375 0.999953ZM7.13727 4.17644L3.2836 8.03011C1.69704 9.61666 1.69704 12.189 3.2836 13.7755C4.87015 15.3621 7.44247 15.3621 9.02902 13.7755L12.8827 9.92186L7.13727 4.17644Z" fill="white"/>
<path d="M4.50001 9.75001L7.46877 6.78125L10.1875 9.49998L7.21874 12.4687C6.46798 13.2195 5.25077 13.2195 4.50001 12.4687C3.74925 11.718 3.74925 10.5008 4.50001 9.75001Z" fill="white" fill-opacity="0.64"/>
<path d="M19 17C19 18.6569 17.6569 20 16 20C14.3431 20 13 18.6569 13 17C13 15.3431 16 12 16 12C16 12 19 15.3431 19 17Z" fill="white" fill-opacity="0.64"/>
</svg>
