<svg width="20" height="20" viewBox="0 0 20 20" fill="none" xmlns="http://www.w3.org/2000/svg">
<path d="M15.6311 10.1814L9.31861 3.86893L10.0257 3.16183C10.8068 2.38078 12.0731 2.38078 12.8541 3.16183L16.3382 6.64589C17.1193 7.42694 17.1193 8.69327 16.3382 9.47432L15.6311 10.1814Z" fill="white"/>
<path d="M15.7421 2.3438C16.1326 1.95327 16.7657 1.95327 17.1563 2.3438C17.5468 2.73432 17.5468 3.36749 17.1563 3.75801L14.5962 6.31805C14.2057 6.70857 13.5725 6.70858 13.182 6.31805C12.7915 5.92753 12.7915 5.29436 13.182 4.90384L15.7421 2.3438Z" fill="white"/>
<path d="M13.549 9.51343L9.98651 5.95093L3.22989 12.7075C2.51911 13.4183 2.32188 14.4482 2.6382 15.336L1.68965 16.2846C1.29913 16.6751 1.29913 17.3083 1.68965 17.6988C2.08018 18.0893 2.71334 18.0893 3.10387 17.6988L4.00411 16.7986C4.92573 17.2001 6.03853 17.0239 6.7924 16.2701L13.549 9.51343Z" fill="#AEAEAE"/>
</svg>
