<svg width="20" height="20" viewBox="0 0 20 20" fill="none" xmlns="http://www.w3.org/2000/svg">
<path d="M6.06215 3.5345C6.38431 2.66389 7.61569 2.66389 7.93785 3.53451L9.00115 6.40803C9.10244 6.68175 9.31825 6.89756 9.59197 6.99885L12.4655 8.06215C13.3361 8.38431 13.3361 9.61569 12.4655 9.93785L9.59197 11.0012C9.31825 11.1024 9.10244 11.3182 9.00115 11.592L7.93785 14.4655C7.61569 15.3361 6.38431 15.3361 6.06215 14.4655L4.99885 11.592C4.89756 11.3182 4.68175 11.1024 4.40803 11.0012L1.5345 9.93785C0.663886 9.61569 0.663887 8.38431 1.53451 8.06215L4.40803 6.99885C4.68175 6.89756 4.89756 6.68175 4.99885 6.40803L6.06215 3.5345Z" fill="white"/>
<path opacity="0.64" d="M13.5621 12.5345C13.8843 11.6639 15.1157 11.6639 15.4379 12.5345L15.8259 13.5833C15.9272 13.857 16.143 14.0728 16.4167 14.1741L17.4655 14.5621C18.3361 14.8843 18.3361 16.1157 17.4655 16.4379L16.4167 16.8259C16.143 16.9272 15.9272 17.143 15.8259 17.4167L15.4379 18.4655C15.1157 19.3361 13.8843 19.3361 13.5621 18.4655L13.1741 17.4167C13.0728 17.143 12.857 16.9272 12.5833 16.8259L11.5345 16.4379C10.6639 16.1157 10.6639 14.8843 11.5345 14.5621L12.5833 14.1741C12.857 14.0728 13.0728 13.857 13.1741 13.5833L13.5621 12.5345Z" fill="white"/>
<path opacity="0.64" d="M15.0621 2.53451C15.3843 1.66389 16.6157 1.66389 16.9379 2.53451L17.1909 3.2183C17.2922 3.49202 17.508 3.70783 17.7817 3.80912L18.4655 4.06215C19.3361 4.38431 19.3361 5.61569 18.4655 5.93785L17.7817 6.19088C17.508 6.29217 17.2922 6.50798 17.1909 6.7817L16.9379 7.46549C16.6157 8.33611 15.3843 8.33611 15.0621 7.46549L14.8091 6.7817C14.7078 6.50798 14.492 6.29217 14.2183 6.19088L13.5345 5.93785C12.6639 5.61569 12.6639 4.38431 13.5345 4.06215L14.2183 3.80912C14.492 3.70783 14.7078 3.49202 14.8091 3.2183L15.0621 2.53451Z" fill="white"/>
</svg>
