<svg width="20" height="20" viewBox="0 0 20 20" fill="none" xmlns="http://www.w3.org/2000/svg">
<rect x="2" y="2" width="2" height="2" rx="1" fill="white" fill-opacity="0.64"/>
<rect x="2" y="9" width="2" height="2" rx="1" fill="white"/>
<rect x="16" y="9" width="2" height="2" rx="1" fill="white"/>
<rect x="16" y="2" width="2" height="2" rx="1" fill="white" fill-opacity="0.64"/>
<rect x="16" y="16" width="2" height="2" rx="1" fill="white" fill-opacity="0.64"/>
<rect x="2" y="16" width="2" height="2" rx="1" fill="white" fill-opacity="0.64"/>
<rect x="12" y="8" width="4" height="4" rx="2" transform="rotate(90 12 8)" fill="white"/>
<rect x="12" y="1" width="4" height="4" rx="2" transform="rotate(90 12 1)" fill="white"/>
<rect x="7" y="5" width="3" height="3" rx="1.5" transform="rotate(90 7 5)" fill="white" fill-opacity="0.64"/>
<rect x="16" y="5" width="3" height="3" rx="1.5" transform="rotate(90 16 5)" fill="white" fill-opacity="0.64"/>
<rect x="7" y="12" width="3" height="3" rx="1.5" transform="rotate(90 7 12)" fill="white" fill-opacity="0.64"/>
<rect x="16" y="12" width="3" height="3" rx="1.5" transform="rotate(90 16 12)" fill="white" fill-opacity="0.64"/>
<rect x="12" y="15" width="4" height="4" rx="2" transform="rotate(90 12 15)" fill="white"/>
</svg>
