<svg width="20" height="20" viewBox="0 0 20 20" fill="none" xmlns="http://www.w3.org/2000/svg">
<path d="M4 10C4 9.44772 3.55228 9 3 9C2.44772 9 2 9.44772 2 10H4ZM16 10C16 13.3137 13.3137 16 10 16V18C14.4183 18 18 14.4183 18 10H16ZM10 16C6.68629 16 4 13.3137 4 10H2C2 14.4183 5.58172 18 10 18V16ZM10 4C13.3137 4 16 6.68629 16 10H18C18 5.58172 14.4183 2 10 2V4ZM5.07487 6.5721C6.16082 5.01524 7.96193 4 10 4V2C7.28058 2 4.87845 3.35779 3.4345 5.4279L5.07487 6.5721Z" fill="white" fill-opacity="0.64"/>
<path d="M4 2V6H8" stroke="white" stroke-width="2" stroke-linecap="round"/>
</svg>
