<svg width="20" height="20" viewBox="0 0 20 20" fill="none" xmlns="http://www.w3.org/2000/svg">
<path opacity="0.64" fill-rule="evenodd" clip-rule="evenodd" d="M15.5528 3.10559L16.4472 4.89445L6.23607 10L16.4472 15.1056L15.5528 16.8944L1.76393 10L15.5528 3.10559Z" fill="white"/>
<path fill-rule="evenodd" clip-rule="evenodd" d="M4 14C6.20914 14 8 12.2091 8 10C8 7.79086 6.20914 6 4 6C1.79086 6 0 7.79086 0 10C0 12.2091 1.79086 14 4 14Z" fill="white"/>
<path fill-rule="evenodd" clip-rule="evenodd" d="M16 8C18.2091 8 20 6.20914 20 4C20 1.79086 18.2091 0 16 0C13.7909 0 12 1.79086 12 4C12 6.20914 13.7909 8 16 8Z" fill="white"/>
<path fill-rule="evenodd" clip-rule="evenodd" d="M16 20C18.2091 20 20 18.2091 20 16C20 13.7909 18.2091 12 16 12C13.7909 12 12 13.7909 12 16C12 18.2091 13.7909 20 16 20Z" fill="white"/>
</svg>
